<svg xmlns="http://www.w3.org/2000/svg" viewBox="0 0 77 77" role="img" aria-label="QR llave Bre-B @JOH421">
  <rect width="77" height="77" fill="#fffaf1"/>
  <path fill="#071827" d="M2,2H3V3H2zM3,2H4V3H3zM4,2H5V3H4zM5,2H6V3H5zM6,2H7V3H6zM7,2H8V3H7zM8,2H9V3H8zM11,2H12V3H11zM12,2H13V3H12zM13,2H14V3H13zM15,2H16V3H15zM16,2H17V3H16zM18,2H19V3H18zM19,2H20V3H19zM21,2H22V3H21zM24,2H25V3H24zM25,2H26V3H25zM31,2H32V3H31zM32,2H33V3H32zM33,2H34V3H33zM34,2H35V3H34zM35,2H36V3H35zM39,2H40V3H39zM42,2H43V3H42zM44,2H45V3H44zM45,2H46V3H45zM48,2H49V3H48zM49,2H50V3H49zM50,2H51V3H50zM51,2H52V3H51zM54,2H55V3H54zM56,2H57V3H56zM57,2H58V3H57zM63,2H64V3H63zM64,2H65V3H64zM66,2H67V3H66zM68,2H69V3H68zM69,2H70V3H69zM70,2H71V3H70zM71,2H72V3H71zM72,2H73V3H72zM73,2H74V3H73zM74,2H75V3H74zM2,3H3V4H2zM8,3H9V4H8zM10,3H11V4H10zM12,3H13V4H12zM16,3H17V4H16zM21,3H22V4H21zM22,3H23V4H22zM26,3H27V4H26zM28,3H29V4H28zM30,3H31V4H30zM32,3H33V4H32zM36,3H37V4H36zM38,3H39V4H38zM41,3H42V4H41zM42,3H43V4H42zM43,3H44V4H43zM45,3H46V4H45zM48,3H49V4H48zM49,3H50V4H49zM50,3H51V4H50zM51,3H52V4H51zM52,3H53V4H52zM55,3H56V4H55zM57,3H58V4H57zM59,3H60V4H59zM60,3H61V4H60zM61,3H62V4H61zM63,3H64V4H63zM64,3H65V4H64zM68,3H69V4H68zM74,3H75V4H74zM2,4H3V5H2zM4,4H5V5H4zM5,4H6V5H5zM6,4H7V5H6zM8,4H9V5H8zM12,4H13V5H12zM13,4H14V5H13zM14,4H15V5H14zM17,4H18V5H17zM18,4H19V5H18zM20,4H21V5H20zM22,4H23V5H22zM24,4H25V5H24zM25,4H26V5H25zM26,4H27V5H26zM27,4H28V5H27zM28,4H29V5H28zM32,4H33V5H32zM36,4H37V5H36zM38,4H39V5H38zM41,4H42V5H41zM42,4H43V5H42zM44,4H45V5H44zM46,4H47V5H46zM47,4H48V5H47zM50,4H51V5H50zM54,4H55V5H54zM58,4H59V5H58zM61,4H62V5H61zM68,4H69V5H68zM70,4H71V5H70zM71,4H72V5H71zM72,4H73V5H72zM74,4H75V5H74zM2,5H3V6H2zM4,5H5V6H4zM5,5H6V6H5zM6,5H7V6H6zM8,5H9V6H8zM11,5H12V6H11zM13,5H14V6H13zM16,5H17V6H16zM19,5H20V6H19zM22,5H23V6H22zM26,5H27V6H26zM30,5H31V6H30zM31,5H32V6H31zM34,5H35V6H34zM35,5H36V6H35zM36,5H37V6H36zM37,5H38V6H37zM39,5H40V6H39zM42,5H43V6H42zM45,5H46V6H45zM46,5H47V6H46zM48,5H49V6H48zM49,5H50V6H49zM50,5H51V6H50zM52,5H53V6H52zM53,5H54V6H53zM57,5H58V6H57zM58,5H59V6H58zM60,5H61V6H60zM61,5H62V6H61zM62,5H63V6H62zM63,5H64V6H63zM64,5H65V6H64zM65,5H66V6H65zM68,5H69V6H68zM70,5H71V6H70zM71,5H72V6H71zM72,5H73V6H72zM74,5H75V6H74zM2,6H3V7H2zM4,6H5V7H4zM5,6H6V7H5zM6,6H7V7H6zM8,6H9V7H8zM10,6H11V7H10zM11,6H12V7H11zM15,6H16V7H15zM18,6H19V7H18zM21,6H22V7H21zM22,6H23V7H22zM23,6H24V7H23zM24,6H25V7H24zM25,6H26V7H25zM26,6H27V7H26zM27,6H28V7H27zM28,6H29V7H28zM29,6H30V7H29zM30,6H31V7H30zM34,6H35V7H34zM36,6H37V7H36zM39,6H40V7H39zM43,6H44V7H43zM44,6H45V7H44zM45,6H46V7H45zM46,6H47V7H46zM47,6H48V7H47zM48,6H49V7H48zM49,6H50V7H49zM50,6H51V7H50zM51,6H52V7H51zM52,6H53V7H52zM53,6H54V7H53zM55,6H56V7H55zM56,6H57V7H56zM61,6H62V7H61zM63,6H64V7H63zM65,6H66V7H65zM66,6H67V7H66zM68,6H69V7H68zM70,6H71V7H70zM71,6H72V7H71zM72,6H73V7H72zM74,6H75V7H74zM2,7H3V8H2zM8,7H9V8H8zM11,7H12V8H11zM12,7H13V8H12zM14,7H15V8H14zM16,7H17V8H16zM19,7H20V8H19zM21,7H22V8H21zM22,7H23V8H22zM23,7H24V8H23zM26,7H27V8H26zM30,7H31V8H30zM31,7H32V8H31zM35,7H36V8H35zM37,7H38V8H37zM38,7H39V8H38zM39,7H40V8H39zM40,7H41V8H40zM42,7H43V8H42zM43,7H44V8H43zM44,7H45V8H44zM45,7H46V8H45zM46,7H47V8H46zM50,7H51V8H50zM52,7H53V8H52zM54,7H55V8H54zM57,7H58V8H57zM59,7H60V8H59zM61,7H62V8H61zM62,7H63V8H62zM64,7H65V8H64zM68,7H69V8H68zM74,7H75V8H74zM2,8H3V9H2zM3,8H4V9H3zM4,8H5V9H4zM5,8H6V9H5zM6,8H7V9H6zM7,8H8V9H7zM8,8H9V9H8zM10,8H11V9H10zM12,8H13V9H12zM14,8H15V9H14zM16,8H17V9H16zM18,8H19V9H18zM20,8H21V9H20zM22,8H23V9H22zM24,8H25V9H24zM26,8H27V9H26zM28,8H29V9H28zM30,8H31V9H30zM32,8H33V9H32zM34,8H35V9H34zM36,8H37V9H36zM38,8H39V9H38zM40,8H41V9H40zM42,8H43V9H42zM44,8H45V9H44zM46,8H47V9H46zM48,8H49V9H48zM50,8H51V9H50zM52,8H53V9H52zM54,8H55V9H54zM56,8H57V9H56zM58,8H59V9H58zM60,8H61V9H60zM62,8H63V9H62zM64,8H65V9H64zM66,8H67V9H66zM68,8H69V9H68zM69,8H70V9H69zM70,8H71V9H70zM71,8H72V9H71zM72,8H73V9H72zM73,8H74V9H73zM74,8H75V9H74zM11,9H12V10H11zM13,9H14V10H13zM16,9H17V10H16zM17,9H18V10H17zM20,9H21V10H20zM24,9H25V10H24zM26,9H27V10H26zM30,9H31V10H30zM32,9H33V10H32zM33,9H34V10H33zM36,9H37V10H36zM37,9H38V10H37zM38,9H39V10H38zM46,9H47V10H46zM50,9H51V10H50zM52,9H53V10H52zM54,9H55V10H54zM56,9H57V10H56zM57,9H58V10H57zM59,9H60V10H59zM65,9H66V10H65zM2,10H3V11H2zM4,10H5V11H4zM6,10H7V11H6zM8,10H9V11H8zM11,10H12V11H11zM13,10H14V11H13zM14,10H15V11H14zM18,10H19V11H18zM19,10H20V11H19zM20,10H21V11H20zM22,10H23V11H22zM25,10H26V11H25zM26,10H27V11H26zM27,10H28V11H27zM28,10H29V11H28zM29,10H30V11H29zM30,10H31V11H30zM31,10H32V11H31zM33,10H34V11H33zM42,10H43V11H42zM44,10H45V11H44zM46,10H47V11H46zM47,10H48V11H47zM48,10H49V11H48zM49,10H50V11H49zM50,10H51V11H50zM51,10H52V11H51zM52,10H53V11H52zM54,10H55V11H54zM56,10H57V11H56zM58,10H59V11H58zM59,10H60V11H59zM60,10H61V11H60zM61,10H62V11H61zM63,10H64V11H63zM64,10H65V11H64zM66,10H67V11H66zM70,10H71V11H70zM73,10H74V11H73zM3,11H4V12H3zM5,11H6V12H5zM9,11H10V12H9zM14,11H15V12H14zM15,11H16V12H15zM16,11H17V12H16zM19,11H20V12H19zM20,11H21V12H20zM22,11H23V12H22zM26,11H27V12H26zM28,11H29V12H28zM29,11H30V12H29zM32,11H33V12H32zM36,11H37V12H36zM39,11H40V12H39zM40,11H41V12H40zM45,11H46V12H45zM46,11H47V12H46zM47,11H48V12H47zM51,11H52V12H51zM55,11H56V12H55zM57,11H58V12H57zM58,11H59V12H58zM61,11H62V12H61zM62,11H63V12H62zM64,11H65V12H64zM65,11H66V12H65zM66,11H67V12H66zM67,11H68V12H67zM68,11H69V12H68zM71,11H72V12H71zM73,11H74V12H73zM2,12H3V13H2zM4,12H5V13H4zM6,12H7V13H6zM8,12H9V13H8zM9,12H10V13H9zM10,12H11V13H10zM11,12H12V13H11zM13,12H14V13H13zM17,12H18V13H17zM18,12H19V13H18zM19,12H20V13H19zM20,12H21V13H20zM22,12H23V13H22zM23,12H24V13H23zM26,12H27V13H26zM29,12H30V13H29zM30,12H31V13H30zM32,12H33V13H32zM38,12H39V13H38zM40,12H41V13H40zM43,12H44V13H43zM44,12H45V13H44zM45,12H46V13H45zM46,12H47V13H46zM48,12H49V13H48zM50,12H51V13H50zM55,12H56V13H55zM61,12H62V13H61zM62,12H63V13H62zM64,12H65V13H64zM66,12H67V13H66zM67,12H68V13H67zM70,12H71V13H70zM72,12H73V13H72zM74,12H75V13H74zM5,13H6V14H5zM6,13H7V14H6zM7,13H8V14H7zM9,13H10V14H9zM12,13H13V14H12zM13,13H14V14H13zM14,13H15V14H14zM15,13H16V14H15zM16,13H17V14H16zM17,13H18V14H17zM19,13H20V14H19zM23,13H24V14H23zM24,13H25V14H24zM25,13H26V14H25zM28,13H29V14H28zM29,13H30V14H29zM32,13H33V14H32zM33,13H34V14H33zM35,13H36V14H35zM36,13H37V14H36zM39,13H40V14H39zM40,13H41V14H40zM41,13H42V14H41zM42,13H43V14H42zM43,13H44V14H43zM45,13H46V14H45zM47,13H48V14H47zM49,13H50V14H49zM54,13H55V14H54zM55,13H56V14H55zM57,13H58V14H57zM58,13H59V14H58zM59,13H60V14H59zM63,13H64V14H63zM65,13H66V14H65zM67,13H68V14H67zM68,13H69V14H68zM69,13H70V14H69zM2,14H3V15H2zM5,14H6V15H5zM6,14H7V15H6zM7,14H8V15H7zM8,14H9V15H8zM9,14H10V15H9zM10,14H11V15H10zM11,14H12V15H11zM12,14H13V15H12zM15,14H16V15H15zM18,14H19V15H18zM19,14H20V15H19zM20,14H21V15H20zM21,14H22V15H21zM22,14H23V15H22zM25,14H26V15H25zM26,14H27V15H26zM27,14H28V15H27zM29,14H30V15H29zM30,14H31V15H30zM32,14H33V15H32zM34,14H35V15H34zM35,14H36V15H35zM37,14H38V15H37zM38,14H39V15H38zM42,14H43V15H42zM43,14H44V15H43zM44,14H45V15H44zM46,14H47V15H46zM48,14H49V15H48zM52,14H53V15H52zM53,14H54V15H53zM56,14H57V15H56zM58,14H59V15H58zM59,14H60V15H59zM60,14H61V15H60zM62,14H63V15H62zM64,14H65V15H64zM66,14H67V15H66zM68,14H69V15H68zM70,14H71V15H70zM72,14H73V15H72zM74,14H75V15H74zM2,15H3V16H2zM4,15H5V16H4zM6,15H7V16H6zM10,15H11V16H10zM11,15H12V16H11zM14,15H15V16H14zM17,15H18V16H17zM18,15H19V16H18zM19,15H20V16H19zM22,15H23V16H22zM23,15H24V16H23zM24,15H25V16H24zM26,15H27V16H26zM27,15H28V16H27zM31,15H32V16H31zM32,15H33V16H32zM33,15H34V16H33zM35,15H36V16H35zM36,15H37V16H36zM37,15H38V16H37zM39,15H40V16H39zM41,15H42V16H41zM45,15H46V16H45zM46,15H47V16H46zM47,15H48V16H47zM50,15H51V16H50zM51,15H52V16H51zM53,15H54V16H53zM54,15H55V16H54zM55,15H56V16H55zM56,15H57V16H56zM58,15H59V16H58zM59,15H60V16H59zM60,15H61V16H60zM62,15H63V16H62zM63,15H64V16H63zM65,15H66V16H65zM67,15H68V16H67zM68,15H69V16H68zM69,15H70V16H69zM72,15H73V16H72zM6,16H7V17H6zM7,16H8V17H7zM8,16H9V17H8zM9,16H10V17H9zM14,16H15V17H14zM15,16H16V17H15zM17,16H18V17H17zM19,16H20V17H19zM20,16H21V17H20zM21,16H22V17H21zM24,16H25V17H24zM27,16H28V17H27zM28,16H29V17H28zM29,16H30V17H29zM34,16H35V17H34zM35,16H36V17H35zM38,16H39V17H38zM39,16H40V17H39zM42,16H43V17H42zM43,16H44V17H43zM45,16H46V17H45zM48,16H49V17H48zM51,16H52V17H51zM54,16H55V17H54zM59,16H60V17H59zM60,16H61V17H60zM62,16H63V17H62zM66,16H67V17H66zM69,16H70V17H69zM74,16H75V17H74zM2,17H3V18H2zM4,17H5V18H4zM5,17H6V18H5zM6,17H7V18H6zM9,17H10V18H9zM12,17H13V18H12zM13,17H14V18H13zM14,17H15V18H14zM15,17H16V18H15zM16,17H17V18H16zM17,17H18V18H17zM18,17H19V18H18zM19,17H20V18H19zM23,17H24V18H23zM25,17H26V18H25zM26,17H27V18H26zM28,17H29V18H28zM29,17H30V18H29zM30,17H31V18H30zM31,17H32V18H31zM34,17H35V18H34zM35,17H36V18H35zM37,17H38V18H37zM39,17H40V18H39zM41,17H42V18H41zM42,17H43V18H42zM45,17H46V18H45zM46,17H47V18H46zM49,17H50V18H49zM51,17H52V18H51zM53,17H54V18H53zM54,17H55V18H54zM57,17H58V18H57zM60,17H61V18H60zM61,17H62V18H61zM62,17H63V18H62zM65,17H66V18H65zM67,17H68V18H67zM69,17H70V18H69zM70,17H71V18H70zM73,17H74V18H73zM3,18H4V19H3zM4,18H5V19H4zM5,18H6V19H5zM8,18H9V19H8zM9,18H10V19H9zM10,18H11V19H10zM13,18H14V19H13zM19,18H20V19H19zM20,18H21V19H20zM21,18H22V19H21zM22,18H23V19H22zM24,18H25V19H24zM26,18H27V19H26zM27,18H28V19H27zM31,18H32V19H31zM32,18H33V19H32zM34,18H35V19H34zM35,18H36V19H35zM38,18H39V19H38zM39,18H40V19H39zM41,18H42V19H41zM45,18H46V19H45zM46,18H47V19H46zM47,18H48V19H47zM49,18H50V19H49zM50,18H51V19H50zM52,18H53V19H52zM56,18H57V19H56zM58,18H59V19H58zM60,18H61V19H60zM61,18H62V19H61zM62,18H63V19H62zM64,18H65V19H64zM66,18H67V19H66zM70,18H71V19H70zM72,18H73V19H72zM74,18H75V19H74zM3,19H4V20H3zM4,19H5V20H4zM5,19H6V20H5zM7,19H8V20H7zM10,19H11V20H10zM17,19H18V20H17zM21,19H22V20H21zM22,19H23V20H22zM25,19H26V20H25zM26,19H27V20H26zM27,19H28V20H27zM28,19H29V20H28zM29,19H30V20H29zM30,19H31V20H30zM31,19H32V20H31zM33,19H34V20H33zM35,19H36V20H35zM36,19H37V20H36zM39,19H40V20H39zM41,19H42V20H41zM42,19H43V20H42zM45,19H46V20H45zM46,19H47V20H46zM49,19H50V20H49zM50,19H51V20H50zM53,19H54V20H53zM55,19H56V20H55zM56,19H57V20H56zM58,19H59V20H58zM59,19H60V20H59zM60,19H61V20H60zM61,19H62V20H61zM63,19H64V20H63zM64,19H65V20H64zM65,19H66V20H65zM67,19H68V20H67zM69,19H70V20H69zM70,19H71V20H70zM71,19H72V20H71zM73,19H74V20H73zM2,20H3V21H2zM6,20H7V21H6zM7,20H8V21H7zM8,20H9V21H8zM10,20H11V21H10zM11,20H12V21H11zM12,20H13V21H12zM15,20H16V21H15zM16,20H17V21H16zM17,20H18V21H17zM19,20H20V21H19zM20,20H21V21H20zM21,20H22V21H21zM22,20H23V21H22zM26,20H27V21H26zM30,20H31V21H30zM31,20H32V21H31zM32,20H33V21H32zM34,20H35V21H34zM35,20H36V21H35zM36,20H37V21H36zM37,20H38V21H37zM40,20H41V21H40zM41,20H42V21H41zM42,20H43V21H42zM43,20H44V21H43zM46,20H47V21H46zM47,20H48V21H47zM49,20H50V21H49zM54,20H55V21H54zM55,20H56V21H55zM58,20H59V21H58zM59,20H60V21H59zM62,20H63V21H62zM63,20H64V21H63zM66,20H67V21H66zM67,20H68V21H67zM69,20H70V21H69zM70,20H71V21H70zM72,20H73V21H72zM74,20H75V21H74zM3,21H4V22H3zM9,21H10V22H9zM16,21H17V22H16zM18,21H19V22H18zM20,21H21V22H20zM22,21H23V22H22zM23,21H24V22H23zM25,21H26V22H25zM26,21H27V22H26zM27,21H28V22H27zM29,21H30V22H29zM30,21H31V22H30zM31,21H32V22H31zM33,21H34V22H33zM39,21H40V22H39zM40,21H41V22H40zM42,21H43V22H42zM45,21H46V22H45zM49,21H50V22H49zM51,21H52V22H51zM53,21H54V22H53zM56,21H57V22H56zM58,21H59V22H58zM59,21H60V22H59zM60,21H61V22H60zM62,21H63V22H62zM63,21H64V22H63zM64,21H65V22H64zM65,21H66V22H65zM67,21H68V22H67zM70,21H71V22H70zM71,21H72V22H71zM73,21H74V22H73zM3,22H4V23H3zM5,22H6V23H5zM6,22H7V23H6zM7,22H8V23H7zM8,22H9V23H8zM10,22H11V23H10zM14,22H15V23H14zM18,22H19V23H18zM22,22H23V23H22zM27,22H28V23H27zM28,22H29V23H28zM31,22H32V23H31zM32,22H33V23H32zM33,22H34V23H33zM36,22H37V23H36zM37,22H38V23H37zM38,22H39V23H38zM40,22H41V23H40zM42,22H43V23H42zM48,22H49V23H48zM52,22H53V23H52zM53,22H54V23H53zM54,22H55V23H54zM55,22H56V23H55zM56,22H57V23H56zM58,22H59V23H58zM62,22H63V23H62zM64,22H65V23H64zM65,22H66V23H65zM66,22H67V23H66zM68,22H69V23H68zM72,22H73V23H72zM74,22H75V23H74zM2,23H3V24H2zM7,23H8V24H7zM10,23H11V24H10zM13,23H14V24H13zM14,23H15V24H14zM16,23H17V24H16zM17,23H18V24H17zM18,23H19V24H18zM19,23H20V24H19zM22,23H23V24H22zM23,23H24V24H23zM26,23H27V24H26zM27,23H28V24H27zM29,23H30V24H29zM30,23H31V24H30zM31,23H32V24H31zM33,23H34V24H33zM34,23H35V24H34zM35,23H36V24H35zM38,23H39V24H38zM39,23H40V24H39zM42,23H43V24H42zM43,23H44V24H43zM46,23H47V24H46zM47,23H48V24H47zM50,23H51V24H50zM51,23H52V24H51zM53,23H54V24H53zM55,23H56V24H55zM56,23H57V24H56zM59,23H60V24H59zM63,23H64V24H63zM65,23H66V24H65zM67,23H68V24H67zM69,23H70V24H69zM3,24H4V25H3zM8,24H9V25H8zM9,24H10V25H9zM11,24H12V25H11zM12,24H13V25H12zM13,24H14V25H13zM15,24H16V25H15zM18,24H19V25H18zM20,24H21V25H20zM21,24H22V25H21zM22,24H23V25H22zM25,24H26V25H25zM26,24H27V25H26zM29,24H30V25H29zM31,24H32V25H31zM33,24H34V25H33zM36,24H37V25H36zM38,24H39V25H38zM40,24H41V25H40zM42,24H43V25H42zM44,24H45V25H44zM46,24H47V25H46zM47,24H48V25H47zM48,24H49V25H48zM51,24H52V25H51zM52,24H53V25H52zM53,24H54V25H53zM54,24H55V25H54zM60,24H61V25H60zM61,24H62V25H61zM64,24H65V25H64zM67,24H68V25H67zM68,24H69V25H68zM72,24H73V25H72zM74,24H75V25H74zM2,25H3V26H2zM3,25H4V26H3zM4,25H5V26H4zM6,25H7V26H6zM7,25H8V26H7zM10,25H11V26H10zM11,25H12V26H11zM12,25H13V26H12zM15,25H16V26H15zM17,25H18V26H17zM18,25H19V26H18zM24,25H25V26H24zM28,25H29V26H28zM31,25H32V26H31zM34,25H35V26H34zM35,25H36V26H35zM38,25H39V26H38zM40,25H41V26H40zM41,25H42V26H41zM43,25H44V26H43zM44,25H45V26H44zM45,25H46V26H45zM47,25H48V26H47zM51,25H52V26H51zM53,25H54V26H53zM55,25H56V26H55zM57,25H58V26H57zM58,25H59V26H58zM59,25H60V26H59zM61,25H62V26H61zM63,25H64V26H63zM67,25H68V26H67zM68,25H69V26H68zM71,25H72V26H71zM73,25H74V26H73zM74,25H75V26H74zM2,26H3V27H2zM5,26H6V27H5zM6,26H7V27H6zM7,26H8V27H7zM8,26H9V27H8zM9,26H10V27H9zM10,26H11V27H10zM11,26H12V27H11zM17,26H18V27H17zM19,26H20V27H19zM22,26H23V27H22zM25,26H26V27H25zM26,26H27V27H26zM27,26H28V27H27zM28,26H29V27H28zM29,26H30V27H29zM30,26H31V27H30zM32,26H33V27H32zM33,26H34V27H33zM36,26H37V27H36zM38,26H39V27H38zM39,26H40V27H39zM44,26H45V27H44zM45,26H46V27H45zM46,26H47V27H46zM47,26H48V27H47zM48,26H49V27H48zM49,26H50V27H49zM50,26H51V27H50zM57,26H58V27H57zM58,26H59V27H58zM64,26H65V27H64zM66,26H67V27H66zM67,26H68V27H67zM68,26H69V27H68zM69,26H70V27H69zM70,26H71V27H70zM72,26H73V27H72zM74,26H75V27H74zM2,27H3V28H2zM5,27H6V28H5zM6,27H7V28H6zM10,27H11V28H10zM11,27H12V28H11zM12,27H13V28H12zM16,27H17V28H16zM19,27H20V28H19zM20,27H21V28H20zM21,27H22V28H21zM22,27H23V28H22zM26,27H27V28H26zM30,27H31V28H30zM31,27H32V28H31zM33,27H34V28H33zM34,27H35V28H34zM35,27H36V28H35zM43,27H44V28H43zM44,27H45V28H44zM45,27H46V28H45zM46,27H47V28H46zM50,27H51V28H50zM51,27H52V28H51zM54,27H55V28H54zM55,27H56V28H55zM59,27H60V28H59zM61,27H62V28H61zM63,27H64V28H63zM65,27H66V28H65zM66,27H67V28H66zM70,27H71V28H70zM71,27H72V28H71zM74,27H75V28H74zM6,28H7V29H6zM8,28H9V29H8zM10,28H11V29H10zM11,28H12V29H11zM13,28H14V29H13zM17,28H18V29H17zM23,28H24V29H23zM25,28H26V29H25zM26,28H27V29H26zM28,28H29V29H28zM30,28H31V29H30zM32,28H33V29H32zM33,28H34V29H33zM36,28H37V29H36zM38,28H39V29H38zM42,28H43V29H42zM43,28H44V29H43zM44,28H45V29H44zM46,28H47V29H46zM48,28H49V29H48zM50,28H51V29H50zM52,28H53V29H52zM54,28H55V29H54zM56,28H57V29H56zM58,28H59V29H58zM59,28H60V29H59zM62,28H63V29H62zM64,28H65V29H64zM66,28H67V29H66zM68,28H69V29H68zM70,28H71V29H70zM74,28H75V29H74zM6,29H7V30H6zM10,29H11V30H10zM11,29H12V30H11zM14,29H15V30H14zM15,29H16V30H15zM20,29H21V30H20zM21,29H22V30H21zM22,29H23V30H22zM25,29H26V30H25zM26,29H27V30H26zM30,29H31V30H30zM31,29H32V30H31zM34,29H35V30H34zM37,29H38V30H37zM39,29H40V30H39zM41,29H42V30H41zM42,29H43V30H42zM43,29H44V30H43zM44,29H45V30H44zM46,29H47V30H46zM50,29H51V30H50zM51,29H52V30H51zM53,29H54V30H53zM54,29H55V30H54zM57,29H58V30H57zM58,29H59V30H58zM61,29H62V30H61zM63,29H64V30H63zM66,29H67V30H66zM70,29H71V30H70zM71,29H72V30H71zM73,29H74V30H73zM2,30H3V31H2zM3,30H4V31H3zM6,30H7V31H6zM7,30H8V31H7zM8,30H9V31H8zM9,30H10V31H9zM10,30H11V31H10zM12,30H13V31H12zM13,30H14V31H13zM14,30H15V31H14zM15,30H16V31H15zM18,30H19V31H18zM21,30H22V31H21zM22,30H23V31H22zM23,30H24V31H23zM24,30H25V31H24zM26,30H27V31H26zM27,30H28V31H27zM28,30H29V31H28zM29,30H30V31H29zM30,30H31V31H30zM31,30H32V31H31zM35,30H36V31H35zM37,30H38V31H37zM38,30H39V31H38zM41,30H42V31H41zM42,30H43V31H42zM45,30H46V31H45zM46,30H47V31H46zM47,30H48V31H47zM48,30H49V31H48zM49,30H50V31H49zM50,30H51V31H50zM51,30H52V31H51zM53,30H54V31H53zM55,30H56V31H55zM56,30H57V31H56zM57,30H58V31H57zM59,30H60V31H59zM60,30H61V31H60zM62,30H63V31H62zM64,30H65V31H64zM66,30H67V31H66zM67,30H68V31H67zM68,30H69V31H68zM69,30H70V31H69zM70,30H71V31H70zM72,30H73V31H72zM74,30H75V31H74zM2,31H3V32H2zM4,31H5V32H4zM5,31H6V32H5zM6,31H7V32H6zM7,31H8V32H7zM9,31H10V32H9zM12,31H13V32H12zM13,31H14V32H13zM14,31H15V32H14zM17,31H18V32H17zM19,31H20V32H19zM22,31H23V32H22zM26,31H27V32H26zM28,31H29V32H28zM29,31H30V32H29zM30,31H31V32H30zM34,31H35V32H34zM35,31H36V32H35zM36,31H37V32H36zM37,31H38V32H37zM39,31H40V32H39zM41,31H42V32H41zM43,31H44V32H43zM45,31H46V32H45zM46,31H47V32H46zM47,31H48V32H47zM51,31H52V32H51zM53,31H54V32H53zM54,31H55V32H54zM56,31H57V32H56zM57,31H58V32H57zM58,31H59V32H58zM59,31H60V32H59zM61,31H62V32H61zM63,31H64V32H63zM65,31H66V32H65zM70,31H71V32H70zM72,31H73V32H72zM73,31H74V32H73zM2,32H3V33H2zM5,32H6V33H5zM6,32H7V33H6zM7,32H8V33H7zM8,32H9V33H8zM9,32H10V33H9zM11,32H12V33H11zM13,32H14V33H13zM15,32H16V33H15zM16,32H17V33H16zM18,32H19V33H18zM19,32H20V33H19zM20,32H21V33H20zM24,32H25V33H24zM27,32H28V33H27zM28,32H29V33H28zM31,32H32V33H31zM32,32H33V33H32zM33,32H34V33H33zM34,32H35V33H34zM36,32H37V33H36zM37,32H38V33H37zM38,32H39V33H38zM40,32H41V33H40zM42,32H43V33H42zM44,32H45V33H44zM46,32H47V33H46zM48,32H49V33H48zM50,32H51V33H50zM52,32H53V33H52zM58,32H59V33H58zM59,32H60V33H59zM60,32H61V33H60zM63,32H64V33H63zM64,32H65V33H64zM65,32H66V33H65zM67,32H68V33H67zM70,32H71V33H70zM4,33H5V34H4zM6,33H7V34H6zM7,33H8V34H7zM10,33H11V34H10zM13,33H14V34H13zM17,33H18V34H17zM20,33H21V34H20zM21,33H22V34H21zM25,33H26V34H25zM26,33H27V34H26zM27,33H28V34H27zM28,33H29V34H28zM29,33H30V34H29zM31,33H32V34H31zM32,33H33V34H32zM40,33H41V34H40zM41,33H42V34H41zM43,33H44V34H43zM44,33H45V34H44zM46,33H47V34H46zM47,33H48V34H47zM49,33H50V34H49zM51,33H52V34H51zM55,33H56V34H55zM56,33H57V34H56zM58,33H59V34H58zM62,33H63V34H62zM63,33H64V34H63zM64,33H65V34H64zM67,33H68V34H67zM70,33H71V34H70zM71,33H72V34H71zM72,33H73V34H72zM74,33H75V34H74zM3,34H4V35H3zM7,34H8V35H7zM8,34H9V35H8zM9,34H10V35H9zM10,34H11V35H10zM11,34H12V35H11zM15,34H16V35H15zM17,34H18V35H17zM18,34H19V35H18zM21,34H22V35H21zM22,34H23V35H22zM24,34H25V35H24zM27,34H28V35H27zM28,34H29V35H28zM30,34H31V35H30zM31,34H32V35H31zM34,34H35V35H34zM35,34H36V35H35zM36,34H37V35H36zM37,34H38V35H37zM39,34H40V35H39zM40,34H41V35H40zM42,34H43V35H42zM44,34H45V35H44zM52,34H53V35H52zM53,34H54V35H53zM54,34H55V35H54zM55,34H56V35H55zM56,34H57V35H56zM59,34H60V35H59zM64,34H65V35H64zM67,34H68V35H67zM68,34H69V35H68zM69,34H70V35H69zM70,34H71V35H70zM72,34H73V35H72zM74,34H75V35H74zM2,35H3V36H2zM3,35H4V36H3zM4,35H5V36H4zM6,35H7V36H6zM7,35H8V36H7zM10,35H11V36H10zM11,35H12V36H11zM13,35H14V36H13zM16,35H17V36H16zM17,35H18V36H17zM18,35H19V36H18zM19,35H20V36H19zM20,35H21V36H20zM22,35H23V36H22zM23,35H24V36H23zM24,35H25V36H24zM25,35H26V36H25zM26,35H27V36H26zM27,35H28V36H27zM29,35H30V36H29zM30,35H31V36H30zM31,35H32V36H31zM32,35H33V36H32zM33,35H34V36H33zM36,35H37V36H36zM37,35H38V36H37zM39,35H40V36H39zM41,35H42V36H41zM45,35H46V36H45zM49,35H50V36H49zM50,35H51V36H50zM51,35H52V36H51zM62,35H63V36H62zM63,35H64V36H63zM65,35H66V36H65zM66,35H67V36H66zM67,35H68V36H67zM68,35H69V36H68zM70,35H71V36H70zM73,35H74V36H73zM7,36H8V37H7zM8,36H9V37H8zM9,36H10V37H9zM11,36H12V37H11zM13,36H14V37H13zM14,36H15V37H14zM15,36H16V37H15zM18,36H19V37H18zM23,36H24V37H23zM25,36H26V37H25zM26,36H27V37H26zM27,36H28V37H27zM29,36H30V37H29zM32,36H33V37H32zM39,36H40V37H39zM40,36H41V37H40zM42,36H43V37H42zM45,36H46V37H45zM49,36H50V37H49zM50,36H51V37H50zM55,36H56V37H55zM60,36H61V37H60zM64,36H65V37H64zM68,36H69V37H68zM70,36H71V37H70zM73,36H74V37H73zM74,36H75V37H74zM2,37H3V38H2zM3,37H4V38H3zM6,37H7V38H6zM9,37H10V38H9zM12,37H13V38H12zM13,37H14V38H13zM16,37H17V38H16zM17,37H18V38H17zM19,37H20V38H19zM20,37H21V38H20zM22,37H23V38H22zM23,37H24V38H23zM25,37H26V38H25zM32,37H33V38H32zM33,37H34V38H33zM34,37H35V38H34zM35,37H36V38H35zM36,37H37V38H36zM37,37H38V38H37zM38,37H39V38H38zM39,37H40V38H39zM41,37H42V38H41zM42,37H43V38H42zM43,37H44V38H43zM45,37H46V38H45zM48,37H49V38H48zM51,37H52V38H51zM53,37H54V38H53zM54,37H55V38H54zM56,37H57V38H56zM57,37H58V38H57zM59,37H60V38H59zM61,37H62V38H61zM63,37H64V38H63zM65,37H66V38H65zM67,37H68V38H67zM69,37H70V38H69zM4,38H5V39H4zM7,38H8V39H7zM8,38H9V39H8zM9,38H10V39H9zM14,38H15V39H14zM16,38H17V39H16zM18,38H19V39H18zM19,38H20V39H19zM21,38H22V39H21zM23,38H24V39H23zM26,38H27V39H26zM27,38H28V39H27zM29,38H30V39H29zM31,38H32V39H31zM32,38H33V39H32zM37,38H38V39H37zM39,38H40V39H39zM42,38H43V39H42zM44,38H45V39H44zM46,38H47V39H46zM48,38H49V39H48zM50,38H51V39H50zM52,38H53V39H52zM53,38H54V39H53zM54,38H55V39H54zM55,38H56V39H55zM56,38H57V39H56zM60,38H61V39H60zM62,38H63V39H62zM64,38H65V39H64zM65,38H66V39H65zM66,38H67V39H66zM70,38H71V39H70zM71,38H72V39H71zM74,38H75V39H74zM4,39H5V40H4zM6,39H7V40H6zM7,39H8V40H7zM9,39H10V40H9zM11,39H12V40H11zM12,39H13V40H12zM13,39H14V40H13zM16,39H17V40H16zM17,39H18V40H17zM18,39H19V40H18zM22,39H23V40H22zM23,39H24V40H23zM25,39H26V40H25zM26,39H27V40H26zM27,39H28V40H27zM28,39H29V40H28zM29,39H30V40H29zM30,39H31V40H30zM31,39H32V40H31zM34,39H35V40H34zM35,39H36V40H35zM36,39H37V40H36zM37,39H38V40H37zM39,39H40V40H39zM40,39H41V40H40zM41,39H42V40H41zM42,39H43V40H42zM43,39H44V40H43zM48,39H49V40H48zM51,39H52V40H51zM52,39H53V40H52zM53,39H54V40H53zM54,39H55V40H54zM55,39H56V40H55zM56,39H57V40H56zM60,39H61V40H60zM63,39H64V40H63zM66,39H67V40H66zM69,39H70V40H69zM3,40H4V41H3zM4,40H5V41H4zM6,40H7V41H6zM8,40H9V41H8zM9,40H10V41H9zM10,40H11V41H10zM11,40H12V41H11zM14,40H15V41H14zM15,40H16V41H15zM17,40H18V41H17zM18,40H19V41H18zM20,40H21V41H20zM22,40H23V41H22zM26,40H27V41H26zM27,40H28V41H27zM30,40H31V41H30zM32,40H33V41H32zM36,40H37V41H36zM37,40H38V41H37zM38,40H39V41H38zM39,40H40V41H39zM41,40H42V41H41zM42,40H43V41H42zM44,40H45V41H44zM46,40H47V41H46zM48,40H49V41H48zM50,40H51V41H50zM53,40H54V41H53zM54,40H55V41H54zM57,40H58V41H57zM60,40H61V41H60zM61,40H62V41H61zM62,40H63V41H62zM64,40H65V41H64zM65,40H66V41H65zM66,40H67V41H66zM70,40H71V41H70zM71,40H72V41H71zM72,40H73V41H72zM73,40H74V41H73zM74,40H75V41H74zM3,41H4V42H3zM4,41H5V42H4zM12,41H13V42H12zM19,41H20V42H19zM22,41H23V42H22zM23,41H24V42H23zM24,41H25V42H24zM26,41H27V42H26zM28,41H29V42H28zM30,41H31V42H30zM31,41H32V42H31zM32,41H33V42H32zM33,41H34V42H33zM34,41H35V42H34zM37,41H38V42H37zM38,41H39V42H38zM40,41H41V42H40zM41,41H42V42H41zM44,41H45V42H44zM45,41H46V42H45zM47,41H48V42H47zM49,41H50V42H49zM51,41H52V42H51zM52,41H53V42H52zM55,41H56V42H55zM58,41H59V42H58zM59,41H60V42H59zM60,41H61V42H60zM63,41H64V42H63zM65,41H66V42H65zM67,41H68V42H67zM69,41H70V42H69zM71,41H72V42H71zM73,41H74V42H73zM4,42H5V43H4zM6,42H7V43H6zM8,42H9V43H8zM9,42H10V43H9zM10,42H11V43H10zM11,42H12V43H11zM14,42H15V43H14zM16,42H17V43H16zM17,42H18V43H17zM22,42H23V43H22zM24,42H25V43H24zM26,42H27V43H26zM28,42H29V43H28zM29,42H30V43H29zM31,42H32V43H31zM33,42H34V43H33zM34,42H35V43H34zM36,42H37V43H36zM37,42H38V43H37zM39,42H40V43H39zM40,42H41V43H40zM41,42H42V43H41zM42,42H43V43H42zM44,42H45V43H44zM46,42H47V43H46zM48,42H49V43H48zM50,42H51V43H50zM51,42H52V43H51zM52,42H53V43H52zM54,42H55V43H54zM55,42H56V43H55zM56,42H57V43H56zM57,42H58V43H57zM61,42H62V43H61zM63,42H64V43H63zM66,42H67V43H66zM67,42H68V43H67zM68,42H69V43H68zM70,42H71V43H70zM72,42H73V43H72zM2,43H3V44H2zM6,43H7V44H6zM12,43H13V44H12zM13,43H14V44H13zM16,43H17V44H16zM18,43H19V44H18zM19,43H20V44H19zM21,43H22V44H21zM22,43H23V44H22zM23,43H24V44H23zM25,43H26V44H25zM27,43H28V44H27zM30,43H31V44H30zM31,43H32V44H31zM32,43H33V44H32zM34,43H35V44H34zM38,43H39V44H38zM39,43H40V44H39zM40,43H41V44H40zM42,43H43V44H42zM43,43H44V44H43zM47,43H48V44H47zM48,43H49V44H48zM49,43H50V44H49zM50,43H51V44H50zM51,43H52V44H51zM52,43H53V44H52zM53,43H54V44H53zM55,43H56V44H55zM56,43H57V44H56zM57,43H58V44H57zM58,43H59V44H58zM59,43H60V44H59zM61,43H62V44H61zM69,43H70V44H69zM71,43H72V44H71zM73,43H74V44H73zM2,44H3V45H2zM3,44H4V45H3zM5,44H6V45H5zM6,44H7V45H6zM8,44H9V45H8zM13,44H14V45H13zM15,44H16V45H15zM16,44H17V45H16zM18,44H19V45H18zM21,44H22V45H21zM22,44H23V45H22zM23,44H24V45H23zM24,44H25V45H24zM26,44H27V45H26zM27,44H28V45H27zM30,44H31V45H30zM33,44H34V45H33zM34,44H35V45H34zM36,44H37V45H36zM40,44H41V45H40zM42,44H43V45H42zM43,44H44V45H43zM45,44H46V45H45zM46,44H47V45H46zM48,44H49V45H48zM50,44H51V45H50zM51,44H52V45H51zM52,44H53V45H52zM53,44H54V45H53zM55,44H56V45H55zM57,44H58V45H57zM69,44H70V45H69zM72,44H73V45H72zM74,44H75V45H74zM2,45H3V46H2zM4,45H5V46H4zM7,45H8V46H7zM9,45H10V46H9zM10,45H11V46H10zM12,45H13V46H12zM15,45H16V46H15zM16,45H17V46H16zM17,45H18V46H17zM18,45H19V46H18zM19,45H20V46H19zM20,45H21V46H20zM23,45H24V46H23zM25,45H26V46H25zM26,45H27V46H26zM28,45H29V46H28zM29,45H30V46H29zM30,45H31V46H30zM32,45H33V46H32zM33,45H34V46H33zM36,45H37V46H36zM37,45H38V46H37zM38,45H39V46H38zM40,45H41V46H40zM42,45H43V46H42zM43,45H44V46H43zM44,45H45V46H44zM48,45H49V46H48zM49,45H50V46H49zM50,45H51V46H50zM54,45H55V46H54zM57,45H58V46H57zM58,45H59V46H58zM60,45H61V46H60zM61,45H62V46H61zM63,45H64V46H63zM65,45H66V46H65zM67,45H68V46H67zM68,45H69V46H68zM69,45H70V46H69zM73,45H74V46H73zM74,45H75V46H74zM2,46H3V47H2zM4,46H5V47H4zM5,46H6V47H5zM6,46H7V47H6zM7,46H8V47H7zM8,46H9V47H8zM9,46H10V47H9zM10,46H11V47H10zM11,46H12V47H11zM12,46H13V47H12zM15,46H16V47H15zM18,46H19V47H18zM21,46H22V47H21zM24,46H25V47H24zM26,46H27V47H26zM27,46H28V47H27zM28,46H29V47H28zM29,46H30V47H29zM30,46H31V47H30zM33,46H34V47H33zM35,46H36V47H35zM38,46H39V47H38zM39,46H40V47H39zM40,46H41V47H40zM42,46H43V47H42zM43,46H44V47H43zM46,46H47V47H46zM47,46H48V47H47zM48,46H49V47H48zM49,46H50V47H49zM50,46H51V47H50zM52,46H53V47H52zM53,46H54V47H53zM54,46H55V47H54zM56,46H57V47H56zM57,46H58V47H57zM60,46H61V47H60zM61,46H62V47H61zM62,46H63V47H62zM66,46H67V47H66zM67,46H68V47H67zM68,46H69V47H68zM69,46H70V47H69zM70,46H71V47H70zM72,46H73V47H72zM73,46H74V47H73zM2,47H3V48H2zM5,47H6V48H5zM6,47H7V48H6zM10,47H11V48H10zM13,47H14V48H13zM15,47H16V48H15zM16,47H17V48H16zM17,47H18V48H17zM18,47H19V48H18zM19,47H20V48H19zM21,47H22V48H21zM25,47H26V48H25zM26,47H27V48H26zM30,47H31V48H30zM31,47H32V48H31zM34,47H35V48H34zM35,47H36V48H35zM36,47H37V48H36zM39,47H40V48H39zM41,47H42V48H41zM43,47H44V48H43zM44,47H45V48H44zM45,47H46V48H45zM46,47H47V48H46zM50,47H51V48H50zM51,47H52V48H51zM54,47H55V48H54zM56,47H57V48H56zM58,47H59V48H58zM59,47H60V48H59zM62,47H63V48H62zM63,47H64V48H63zM65,47H66V48H65zM66,47H67V48H66zM70,47H71V48H70zM71,47H72V48H71zM73,47H74V48H73zM2,48H3V49H2zM4,48H5V49H4zM5,48H6V49H5zM6,48H7V49H6zM8,48H9V49H8zM10,48H11V49H10zM13,48H14V49H13zM15,48H16V49H15zM18,48H19V49H18zM19,48H20V49H19zM21,48H22V49H21zM26,48H27V49H26zM28,48H29V49H28zM30,48H31V49H30zM32,48H33V49H32zM38,48H39V49H38zM39,48H40V49H39zM44,48H45V49H44zM46,48H47V49H46zM48,48H49V49H48zM50,48H51V49H50zM53,48H54V49H53zM55,48H56V49H55zM58,48H59V49H58zM59,48H60V49H59zM62,48H63V49H62zM64,48H65V49H64zM65,48H66V49H65zM66,48H67V49H66zM68,48H69V49H68zM70,48H71V49H70zM71,48H72V49H71zM72,48H73V49H72zM74,48H75V49H74zM3,49H4V50H3zM6,49H7V50H6zM10,49H11V50H10zM13,49H14V50H13zM21,49H22V50H21zM22,49H23V50H22zM26,49H27V50H26zM30,49H31V50H30zM31,49H32V50H31zM33,49H34V50H33zM36,49H37V50H36zM37,49H38V50H37zM45,49H46V50H45zM46,49H47V50H46zM50,49H51V50H50zM51,49H52V50H51zM53,49H54V50H53zM54,49H55V50H54zM55,49H56V50H55zM59,49H60V50H59zM61,49H62V50H61zM62,49H63V50H62zM63,49H64V50H63zM64,49H65V50H64zM65,49H66V50H65zM66,49H67V50H66zM70,49H71V50H70zM71,49H72V50H71zM72,49H73V50H72zM73,49H74V50H73zM3,50H4V51H3zM4,50H5V51H4zM5,50H6V51H5zM6,50H7V51H6zM7,50H8V51H7zM8,50H9V51H8zM9,50H10V51H9zM10,50H11V51H10zM13,50H14V51H13zM15,50H16V51H15zM18,50H19V51H18zM20,50H21V51H20zM21,50H22V51H21zM23,50H24V51H23zM26,50H27V51H26zM27,50H28V51H27zM28,50H29V51H28zM29,50H30V51H29zM30,50H31V51H30zM32,50H33V51H32zM34,50H35V51H34zM37,50H38V51H37zM38,50H39V51H38zM40,50H41V51H40zM41,50H42V51H41zM42,50H43V51H42zM44,50H45V51H44zM46,50H47V51H46zM47,50H48V51H47zM48,50H49V51H48zM49,50H50V51H49zM50,50H51V51H50zM51,50H52V51H51zM52,50H53V51H52zM53,50H54V51H53zM58,50H59V51H58zM61,50H62V51H61zM62,50H63V51H62zM66,50H67V51H66zM67,50H68V51H67zM68,50H69V51H68zM69,50H70V51H69zM70,50H71V51H70zM71,50H72V51H71zM3,51H4V52H3zM4,51H5V52H4zM7,51H8V52H7zM9,51H10V52H9zM11,51H12V52H11zM13,51H14V52H13zM14,51H15V52H14zM15,51H16V52H15zM16,51H17V52H16zM17,51H18V52H17zM18,51H19V52H18zM20,51H21V52H20zM21,51H22V52H21zM22,51H23V52H22zM24,51H25V52H24zM25,51H26V52H25zM26,51H27V52H26zM31,51H32V52H31zM32,51H33V52H32zM33,51H34V52H33zM35,51H36V52H35zM36,51H37V52H36zM37,51H38V52H37zM40,51H41V52H40zM42,51H43V52H42zM43,51H44V52H43zM45,51H46V52H45zM47,51H48V52H47zM49,51H50V52H49zM50,51H51V52H50zM51,51H52V52H51zM52,51H53V52H52zM53,51H54V52H53zM54,51H55V52H54zM59,51H60V52H59zM60,51H61V52H60zM62,51H63V52H62zM65,51H66V52H65zM67,51H68V52H67zM69,51H70V52H69zM71,51H72V52H71zM2,52H3V53H2zM3,52H4V53H3zM6,52H7V53H6zM7,52H8V53H7zM8,52H9V53H8zM10,52H11V53H10zM11,52H12V53H11zM12,52H13V53H12zM13,52H14V53H13zM14,52H15V53H14zM15,52H16V53H15zM17,52H18V53H17zM19,52H20V53H19zM20,52H21V53H20zM21,52H22V53H21zM22,52H23V53H22zM23,52H24V53H23zM26,52H27V53H26zM27,52H28V53H27zM28,52H29V53H28zM29,52H30V53H29zM32,52H33V53H32zM41,52H42V53H41zM44,52H45V53H44zM46,52H47V53H46zM47,52H48V53H47zM49,52H50V53H49zM50,52H51V53H50zM52,52H53V53H52zM54,52H55V53H54zM56,52H57V53H56zM59,52H60V53H59zM60,52H61V53H60zM66,52H67V53H66zM68,52H69V53H68zM69,52H70V53H69zM70,52H71V53H70zM72,52H73V53H72zM74,52H75V53H74zM2,53H3V54H2zM3,53H4V54H3zM9,53H10V54H9zM10,53H11V54H10zM12,53H13V54H12zM14,53H15V54H14zM15,53H16V54H15zM16,53H17V54H16zM19,53H20V54H19zM20,53H21V54H20zM22,53H23V54H22zM24,53H25V54H24zM25,53H26V54H25zM29,53H30V54H29zM30,53H31V54H30zM32,53H33V54H32zM34,53H35V54H34zM35,53H36V54H35zM37,53H38V54H37zM38,53H39V54H38zM39,53H40V54H39zM41,53H42V54H41zM43,53H44V54H43zM45,53H46V54H45zM47,53H48V54H47zM49,53H50V54H49zM51,53H52V54H51zM53,53H54V54H53zM55,53H56V54H55zM59,53H60V54H59zM61,53H62V54H61zM62,53H63V54H62zM63,53H64V54H63zM65,53H66V54H65zM67,53H68V54H67zM69,53H70V54H69zM70,53H71V54H70zM71,53H72V54H71zM73,53H74V54H73zM5,54H6V55H5zM7,54H8V55H7zM8,54H9V55H8zM10,54H11V55H10zM11,54H12V55H11zM13,54H14V55H13zM14,54H15V55H14zM15,54H16V55H15zM17,54H18V55H17zM18,54H19V55H18zM20,54H21V55H20zM23,54H24V55H23zM26,54H27V55H26zM27,54H28V55H27zM29,54H30V55H29zM30,54H31V55H30zM35,54H36V55H35zM37,54H38V55H37zM39,54H40V55H39zM42,54H43V55H42zM43,54H44V55H43zM46,54H47V55H46zM48,54H49V55H48zM52,54H53V55H52zM55,54H56V55H55zM56,54H57V55H56zM57,54H58V55H57zM59,54H60V55H59zM60,54H61V55H60zM61,54H62V55H61zM62,54H63V55H62zM63,54H64V55H63zM64,54H65V55H64zM66,54H67V55H66zM68,54H69V55H68zM70,54H71V55H70zM72,54H73V55H72zM74,54H75V55H74zM2,55H3V56H2zM3,55H4V56H3zM5,55H6V56H5zM7,55H8V56H7zM11,55H12V56H11zM16,55H17V56H16zM17,55H18V56H17zM21,55H22V56H21zM22,55H23V56H22zM25,55H26V56H25zM26,55H27V56H26zM27,55H28V56H27zM32,55H33V56H32zM41,55H42V56H41zM42,55H43V56H42zM43,55H44V56H43zM44,55H45V56H44zM45,55H46V56H45zM47,55H48V56H47zM49,55H50V56H49zM51,55H52V56H51zM55,55H56V56H55zM58,55H59V56H58zM61,55H62V56H61zM63,55H64V56H63zM65,55H66V56H65zM67,55H68V56H67zM69,55H70V56H69zM71,55H72V56H71zM4,56H5V57H4zM5,56H6V57H5zM6,56H7V57H6zM8,56H9V57H8zM9,56H10V57H9zM12,56H13V57H12zM16,56H17V57H16zM17,56H18V57H17zM18,56H19V57H18zM19,56H20V57H19zM21,56H22V57H21zM27,56H28V57H27zM28,56H29V57H28zM29,56H30V57H29zM32,56H33V57H32zM33,56H34V57H33zM34,56H35V57H34zM36,56H37V57H36zM37,56H38V57H37zM40,56H41V57H40zM41,56H42V57H41zM42,56H43V57H42zM43,56H44V57H43zM44,56H45V57H44zM45,56H46V57H45zM47,56H48V57H47zM50,56H51V57H50zM52,56H53V57H52zM53,56H54V57H53zM54,56H55V57H54zM56,56H57V57H56zM60,56H61V57H60zM64,56H65V57H64zM66,56H67V57H66zM67,56H68V57H67zM68,56H69V57H68zM72,56H73V57H72zM74,56H75V57H74zM2,57H3V58H2zM4,57H5V58H4zM5,57H6V58H5zM6,57H7V58H6zM10,57H11V58H10zM13,57H14V58H13zM14,57H15V58H14zM15,57H16V58H15zM19,57H20V58H19zM20,57H21V58H20zM21,57H22V58H21zM23,57H24V58H23zM25,57H26V58H25zM27,57H28V58H27zM28,57H29V58H28zM29,57H30V58H29zM30,57H31V58H30zM31,57H32V58H31zM33,57H34V58H33zM36,57H37V58H36zM40,57H41V58H40zM41,57H42V58H41zM42,57H43V58H42zM49,57H50V58H49zM52,57H53V58H52zM53,57H54V58H53zM56,57H57V58H56zM57,57H58V58H57zM59,57H60V58H59zM60,57H61V58H60zM62,57H63V58H62zM63,57H64V58H63zM64,57H65V58H64zM66,57H67V58H66zM67,57H68V58H67zM68,57H69V58H68zM69,57H70V58H69zM72,57H73V58H72zM73,57H74V58H73zM6,58H7V59H6zM7,58H8V59H7zM8,58H9V59H8zM9,58H10V59H9zM12,58H13V59H12zM13,58H14V59H13zM14,58H15V59H14zM15,58H16V59H15zM17,58H18V59H17zM18,58H19V59H18zM19,58H20V59H19zM21,58H22V59H21zM22,58H23V59H22zM23,58H24V59H23zM24,58H25V59H24zM25,58H26V59H25zM26,58H27V59H26zM27,58H28V59H27zM30,58H31V59H30zM32,58H33V59H32zM34,58H35V59H34zM35,58H36V59H35zM36,58H37V59H36zM39,58H40V59H39zM40,58H41V59H40zM41,58H42V59H41zM42,58H43V59H42zM50,58H51V59H50zM54,58H55V59H54zM55,58H56V59H55zM56,58H57V59H56zM58,58H59V59H58zM59,58H60V59H59zM62,58H63V59H62zM64,58H65V59H64zM66,58H67V59H66zM67,58H68V59H67zM68,58H69V59H68zM70,58H71V59H70zM72,58H73V59H72zM74,58H75V59H74zM2,59H3V60H2zM3,59H4V60H3zM5,59H6V60H5zM9,59H10V60H9zM13,59H14V60H13zM16,59H17V60H16zM17,59H18V60H17zM21,59H22V60H21zM25,59H26V60H25zM29,59H30V60H29zM31,59H32V60H31zM33,59H34V60H33zM38,59H39V60H38zM42,59H43V60H42zM43,59H44V60H43zM44,59H45V60H44zM45,59H46V60H45zM46,59H47V60H46zM47,59H48V60H47zM48,59H49V60H48zM49,59H50V60H49zM51,59H52V60H51zM55,59H56V60H55zM60,59H61V60H60zM65,59H66V60H65zM66,59H67V60H66zM67,59H68V60H67zM68,59H69V60H68zM69,59H70V60H69zM71,59H72V60H71zM73,59H74V60H73zM3,60H4V61H3zM5,60H6V61H5zM6,60H7V61H6zM8,60H9V61H8zM10,60H11V61H10zM12,60H13V61H12zM14,60H15V61H14zM15,60H16V61H15zM21,60H22V61H21zM22,60H23V61H22zM25,60H26V61H25zM28,60H29V61H28zM34,60H35V61H34zM36,60H37V61H36zM38,60H39V61H38zM40,60H41V61H40zM42,60H43V61H42zM44,60H45V61H44zM46,60H47V61H46zM48,60H49V61H48zM49,60H50V61H49zM50,60H51V61H50zM51,60H52V61H51zM52,60H53V61H52zM53,60H54V61H53zM54,60H55V61H54zM56,60H57V61H56zM58,60H59V61H58zM61,60H62V61H61zM62,60H63V61H62zM64,60H65V61H64zM66,60H67V61H66zM67,60H68V61H67zM70,60H71V61H70zM72,60H73V61H72zM74,60H75V61H74zM2,61H3V62H2zM5,61H6V62H5zM6,61H7V62H6zM9,61H10V62H9zM11,61H12V62H11zM12,61H13V62H12zM17,61H18V62H17zM18,61H19V62H18zM22,61H23V62H22zM24,61H25V62H24zM27,61H28V62H27zM28,61H29V62H28zM30,61H31V62H30zM31,61H32V62H31zM35,61H36V62H35zM36,61H37V62H36zM40,61H41V62H40zM41,61H42V62H41zM44,61H45V62H44zM45,61H46V62H45zM46,61H47V62H46zM47,61H48V62H47zM48,61H49V62H48zM50,61H51V62H50zM51,61H52V62H51zM53,61H54V62H53zM54,61H55V62H54zM56,61H57V62H56zM57,61H58V62H57zM61,61H62V62H61zM63,61H64V62H63zM64,61H65V62H64zM65,61H66V62H65zM69,61H70V62H69zM71,61H72V62H71zM72,61H73V62H72zM73,61H74V62H73zM2,62H3V63H2zM4,62H5V63H4zM6,62H7V63H6zM8,62H9V63H8zM12,62H13V63H12zM17,62H18V63H17zM19,62H20V63H19zM21,62H22V63H21zM22,62H23V63H22zM24,62H25V63H24zM26,62H27V63H26zM30,62H31V63H30zM32,62H33V63H32zM33,62H34V63H33zM34,62H35V63H34zM37,62H38V63H37zM42,62H43V63H42zM43,62H44V63H43zM44,62H45V63H44zM45,62H46V63H45zM46,62H47V63H46zM50,62H51V63H50zM52,62H53V63H52zM56,62H57V63H56zM57,62H58V63H57zM58,62H59V63H58zM60,62H61V63H60zM61,62H62V63H61zM62,62H63V63H62zM65,62H66V63H65zM68,62H69V63H68zM70,62H71V63H70zM72,62H73V63H72zM74,62H75V63H74zM3,63H4V64H3zM6,63H7V64H6zM7,63H8V64H7zM10,63H11V64H10zM11,63H12V64H11zM13,63H14V64H13zM18,63H19V64H18zM19,63H20V64H19zM20,63H21V64H20zM21,63H22V64H21zM24,63H25V64H24zM25,63H26V64H25zM26,63H27V64H26zM27,63H28V64H27zM28,63H29V64H28zM29,63H30V64H29zM30,63H31V64H30zM31,63H32V64H31zM32,63H33V64H32zM33,63H34V64H33zM36,63H37V64H36zM41,63H42V64H41zM44,63H45V64H44zM45,63H46V64H45zM46,63H47V64H46zM47,63H48V64H47zM53,63H54V64H53zM55,63H56V64H55zM57,63H58V64H57zM58,63H59V64H58zM59,63H60V64H59zM60,63H61V64H60zM63,63H64V64H63zM65,63H66V64H65zM68,63H69V64H68zM69,63H70V64H69zM73,63H74V64H73zM2,64H3V65H2zM3,64H4V65H3zM5,64H6V65H5zM7,64H8V65H7zM8,64H9V65H8zM9,64H10V65H9zM10,64H11V65H10zM12,64H13V65H12zM13,64H14V65H13zM15,64H16V65H15zM18,64H19V65H18zM19,64H20V65H19zM24,64H25V65H24zM31,64H32V65H31zM34,64H35V65H34zM36,64H37V65H36zM37,64H38V65H37zM39,64H40V65H39zM42,64H43V65H42zM43,64H44V65H43zM44,64H45V65H44zM45,64H46V65H45zM50,64H51V65H50zM52,64H53V65H52zM54,64H55V65H54zM58,64H59V65H58zM60,64H61V65H60zM61,64H62V65H61zM62,64H63V65H62zM63,64H64V65H63zM67,64H68V65H67zM68,64H69V65H68zM70,64H71V65H70zM74,64H75V65H74zM5,65H6V66H5zM6,65H7V66H6zM10,65H11V66H10zM14,65H15V66H14zM16,65H17V66H16zM18,65H19V66H18zM21,65H22V66H21zM22,65H23V66H22zM24,65H25V66H24zM25,65H26V66H25zM27,65H28V66H27zM29,65H30V66H29zM35,65H36V66H35zM36,65H37V66H36zM38,65H39V66H38zM39,65H40V66H39zM41,65H42V66H41zM44,65H45V66H44zM45,65H46V66H45zM46,65H47V66H46zM47,65H48V66H47zM49,65H50V66H49zM50,65H51V66H50zM51,65H52V66H51zM58,65H59V66H58zM59,65H60V66H59zM61,65H62V66H61zM63,65H64V66H63zM64,65H65V66H64zM66,65H67V66H66zM67,65H68V66H67zM69,65H70V66H69zM71,65H72V66H71zM72,65H73V66H72zM73,65H74V66H73zM74,65H75V66H74zM2,66H3V67H2zM6,66H7V67H6zM8,66H9V67H8zM10,66H11V67H10zM12,66H13V67H12zM17,66H18V67H17zM22,66H23V67H22zM23,66H24V67H23zM26,66H27V67H26zM27,66H28V67H27zM28,66H29V67H28zM29,66H30V67H29zM30,66H31V67H30zM34,66H35V67H34zM36,66H37V67H36zM37,66H38V67H37zM38,66H39V67H38zM40,66H41V67H40zM42,66H43V67H42zM43,66H44V67H43zM46,66H47V67H46zM47,66H48V67H47zM48,66H49V67H48zM49,66H50V67H49zM50,66H51V67H50zM53,66H54V67H53zM55,66H56V67H55zM56,66H57V67H56zM57,66H58V67H57zM59,66H60V67H59zM61,66H62V67H61zM62,66H63V67H62zM63,66H64V67H63zM64,66H65V67H64zM65,66H66V67H65zM66,66H67V67H66zM67,66H68V67H67zM68,66H69V67H68zM69,66H70V67H69zM70,66H71V67H70zM74,66H75V67H74zM10,67H11V68H10zM12,67H13V68H12zM13,67H14V68H13zM15,67H16V68H15zM17,67H18V68H17zM18,67H19V68H18zM19,67H20V68H19zM20,67H21V68H20zM21,67H22V68H21zM25,67H26V68H25zM26,67H27V68H26zM30,67H31V68H30zM33,67H34V68H33zM35,67H36V68H35zM38,67H39V68H38zM39,67H40V68H39zM41,67H42V68H41zM44,67H45V68H44zM46,67H47V68H46zM50,67H51V68H50zM52,67H53V68H52zM53,67H54V68H53zM55,67H56V68H55zM56,67H57V68H56zM57,67H58V68H57zM59,67H60V68H59zM60,67H61V68H60zM61,67H62V68H61zM62,67H63V68H62zM63,67H64V68H63zM66,67H67V68H66zM70,67H71V68H70zM71,67H72V68H71zM73,67H74V68H73zM74,67H75V68H74zM2,68H3V69H2zM3,68H4V69H3zM4,68H5V69H4zM5,68H6V69H5zM6,68H7V69H6zM7,68H8V69H7zM8,68H9V69H8zM11,68H12V69H11zM12,68H13V69H12zM14,68H15V69H14zM15,68H16V69H15zM16,68H17V69H16zM22,68H23V69H22zM23,68H24V69H23zM25,68H26V69H25zM26,68H27V69H26zM28,68H29V69H28zM30,68H31V69H30zM36,68H37V69H36zM40,68H41V69H40zM42,68H43V69H42zM43,68H44V69H43zM44,68H45V69H44zM45,68H46V69H45zM46,68H47V69H46zM48,68H49V69H48zM50,68H51V69H50zM51,68H52V69H51zM52,68H53V69H52zM53,68H54V69H53zM57,68H58V69H57zM59,68H60V69H59zM61,68H62V69H61zM65,68H66V69H65zM66,68H67V69H66zM68,68H69V69H68zM70,68H71V69H70zM71,68H72V69H71zM72,68H73V69H72zM73,68H74V69H73zM2,69H3V70H2zM8,69H9V70H8zM14,69H15V70H14zM16,69H17V70H16zM18,69H19V70H18zM19,69H20V70H19zM22,69H23V70H22zM26,69H27V70H26zM30,69H31V70H30zM31,69H32V70H31zM33,69H34V70H33zM34,69H35V70H34zM36,69H37V70H36zM37,69H38V70H37zM39,69H40V70H39zM41,69H42V70H41zM45,69H46V70H45zM46,69H47V70H46zM50,69H51V70H50zM51,69H52V70H51zM55,69H56V70H55zM57,69H58V70H57zM58,69H59V70H58zM60,69H61V70H60zM65,69H66V70H65zM66,69H67V70H66zM70,69H71V70H70zM73,69H74V70H73zM74,69H75V70H74zM2,70H3V71H2zM4,70H5V71H4zM5,70H6V71H5zM6,70H7V71H6zM8,70H9V71H8zM10,70H11V71H10zM13,70H14V71H13zM17,70H18V71H17zM18,70H19V71H18zM19,70H20V71H19zM20,70H21V71H20zM21,70H22V71H21zM22,70H23V71H22zM23,70H24V71H23zM24,70H25V71H24zM26,70H27V71H26zM27,70H28V71H27zM28,70H29V71H28zM29,70H30V71H29zM30,70H31V71H30zM32,70H33V71H32zM35,70H36V71H35zM36,70H37V71H36zM37,70H38V71H37zM38,70H39V71H38zM39,70H40V71H39zM41,70H42V71H41zM42,70H43V71H42zM43,70H44V71H43zM45,70H46V71H45zM46,70H47V71H46zM47,70H48V71H47zM48,70H49V71H48zM49,70H50V71H49zM50,70H51V71H50zM52,70H53V71H52zM55,70H56V71H55zM60,70H61V71H60zM62,70H63V71H62zM66,70H67V71H66zM67,70H68V71H67zM68,70H69V71H68zM69,70H70V71H69zM70,70H71V71H70zM71,70H72V71H71zM72,70H73V71H72zM74,70H75V71H74zM2,71H3V72H2zM4,71H5V72H4zM5,71H6V72H5zM6,71H7V72H6zM8,71H9V72H8zM14,71H15V72H14zM16,71H17V72H16zM17,71H18V72H17zM18,71H19V72H18zM19,71H20V72H19zM20,71H21V72H20zM22,71H23V72H22zM23,71H24V72H23zM24,71H25V72H24zM25,71H26V72H25zM28,71H29V72H28zM31,71H32V72H31zM33,71H34V72H33zM36,71H37V72H36zM37,71H38V72H37zM39,71H40V72H39zM40,71H41V72H40zM41,71H42V72H41zM43,71H44V72H43zM45,71H46V72H45zM47,71H48V72H47zM49,71H50V72H49zM50,71H51V72H50zM51,71H52V72H51zM55,71H56V72H55zM56,71H57V72H56zM57,71H58V72H57zM58,71H59V72H58zM60,71H61V72H60zM62,71H63V72H62zM63,71H64V72H63zM65,71H66V72H65zM66,71H67V72H66zM67,71H68V72H67zM68,71H69V72H68zM69,71H70V72H69zM73,71H74V72H73zM2,72H3V73H2zM4,72H5V73H4zM5,72H6V73H5zM6,72H7V73H6zM8,72H9V73H8zM10,72H11V73H10zM12,72H13V73H12zM13,72H14V73H13zM14,72H15V73H14zM19,72H20V73H19zM21,72H22V73H21zM23,72H24V73H23zM25,72H26V73H25zM27,72H28V73H27zM30,72H31V73H30zM32,72H33V73H32zM33,72H34V73H33zM36,72H37V73H36zM37,72H38V73H37zM39,72H40V73H39zM48,72H49V73H48zM51,72H52V73H51zM52,72H53V73H52zM54,72H55V73H54zM65,72H66V73H65zM66,72H67V73H66zM68,72H69V73H68zM70,72H71V73H70zM74,72H75V73H74zM2,73H3V74H2zM8,73H9V74H8zM11,73H12V74H11zM14,73H15V74H14zM15,73H16V74H15zM18,73H19V74H18zM22,73H23V74H22zM23,73H24V74H23zM26,73H27V74H26zM27,73H28V74H27zM28,73H29V74H28zM31,73H32V74H31zM34,73H35V74H34zM35,73H36V74H35zM37,73H38V74H37zM41,73H42V74H41zM43,73H44V74H43zM45,73H46V74H45zM46,73H47V74H46zM47,73H48V74H47zM49,73H50V74H49zM50,73H51V74H50zM51,73H52V74H51zM53,73H54V74H53zM57,73H58V74H57zM58,73H59V74H58zM60,73H61V74H60zM61,73H62V74H61zM62,73H63V74H62zM63,73H64V74H63zM64,73H65V74H64zM67,73H68V74H67zM68,73H69V74H68zM69,73H70V74H69zM72,73H73V74H72zM2,74H3V75H2zM3,74H4V75H3zM4,74H5V75H4zM5,74H6V75H5zM6,74H7V75H6zM7,74H8V75H7zM8,74H9V75H8zM10,74H11V75H10zM11,74H12V75H11zM12,74H13V75H12zM13,74H14V75H13zM14,74H15V75H14zM15,74H16V75H15zM17,74H18V75H17zM21,74H22V75H21zM22,74H23V75H22zM23,74H24V75H23zM25,74H26V75H25zM27,74H28V75H27zM30,74H31V75H30zM31,74H32V75H31zM32,74H33V75H32zM33,74H34V75H33zM34,74H35V75H34zM35,74H36V75H35zM36,74H37V75H36zM37,74H38V75H37zM38,74H39V75H38zM39,74H40V75H39zM42,74H43V75H42zM44,74H45V75H44zM45,74H46V75H45zM46,74H47V75H46zM48,74H49V75H48zM49,74H50V75H49zM51,74H52V75H51zM52,74H53V75H52zM53,74H54V75H53zM57,74H58V75H57zM59,74H60V75H59zM60,74H61V75H60zM63,74H64V75H63zM64,74H65V75H64zM66,74H67V75H66zM70,74H71V75H70zM74,74H75V75H74z"/>
</svg>
