<svg xmlns="http://www.w3.org/2000/svg" viewBox="0 0 132 132" role="img" aria-label="QR para transferencia">
  <rect width="132" height="132" fill="#fffaf1"/>
  <g fill="#071827">
    <path d="M12 12h44v44H12zM20 20v28h28V20zM28 28h12v12H28z"/>
    <path d="M76 12h44v44H76zM84 20v28h28V20zM92 28h12v12H92z"/>
    <path d="M12 76h44v44H12zM20 84v28h28V84zM28 92h12v12H28z"/>
    <path d="M64 12h4v8h-4zM64 28h8v4h-8zM64 40h4v16h-4zM12 64h8v4h-8zM28 64h12v4H28zM48 64h8v4h-8zM64 64h8v8h-8zM84 64h12v4H84zM104 64h16v8h-16z"/>
    <path d="M64 80h8v8h-8zM76 76h8v4h-8zM88 76h8v12h-8zM104 80h4v8h-4zM116 80h4v16h-4zM64 96h12v4H64zM84 96h8v8h-8zM100 96h16v4h-16zM64 108h4v12h-4zM76 108h12v4H76zM96 108h8v12h-8zM112 108h8v12h-8z"/>
    <path d="M60 60h4v4h-4zM72 60h4v4h-4zM80 60h4v8h-4zM96 60h4v4h-4zM60 72h8v4h-8zM72 72h4v8h-4zM80 72h12v4H80zM96 72h4v8h-4zM108 72h4v4h-4z"/>
  </g>
</svg>
